<?xml version="1.0" encoding="UTF-8" standalone="no"?><svg xmlns="http://www.w3.org/2000/svg" xmlns:xlink="http://www.w3.org/1999/xlink" contentScriptType="application/ecmascript" contentStyleType="text/css" height="438px" preserveAspectRatio="none" style="width:782px;height:438px;" version="1.1" viewBox="0 0 782 438" width="782px" zoomAndPan="magnify"><defs><filter height="300%" id="fz6fi8quo9vt6" width="300%" x="-1" y="-1"><feGaussianBlur result="blurOut" stdDeviation="2.0"/><feColorMatrix in="blurOut" result="blurOut2" type="matrix" values="0 0 0 0 0 0 0 0 0 0 0 0 0 0 0 0 0 0 .4 0"/><feOffset dx="4.0" dy="4.0" in="blurOut2" result="blurOut3"/><feBlend in="SourceGraphic" in2="blurOut3" mode="normal"/></filter></defs><g><!--MD5=[2afb87bb3dd338eba72d88dafbcf8c1e]
class UserAttribute--><rect fill="#FEFECE" filter="url(#fz6fi8quo9vt6)" height="99.2188" id="UserAttribute" style="stroke: #A80036; stroke-width: 1.5;" width="195" x="7" y="288"/><ellipse cx="60.25" cy="304" fill="#ADD1B2" rx="11" ry="11" style="stroke: #A80036; stroke-width: 1.0;"/><path d="M62.5938,299.6719 C61.6563,299.2344 61.0625,299.0938 60.1875,299.0938 C57.5625,299.0938 55.5625,301.1719 55.5625,303.8906 L55.5625,305.0156 C55.5625,307.5938 57.6719,309.4844 60.5625,309.4844 C61.7813,309.4844 62.9375,309.1875 63.6875,308.6406 C64.2656,308.2344 64.5938,307.7813 64.5938,307.3906 C64.5938,306.9375 64.2031,306.5469 63.7344,306.5469 C63.5156,306.5469 63.3125,306.625 63.125,306.8125 C62.6719,307.2969 62.6719,307.2969 62.4844,307.3906 C62.0625,307.6563 61.375,307.7813 60.6094,307.7813 C58.5625,307.7813 57.2656,306.6875 57.2656,304.9844 L57.2656,303.8906 C57.2656,302.1094 58.5156,300.7969 60.25,300.7969 C60.8281,300.7969 61.4375,300.9531 61.9063,301.2031 C62.3906,301.4844 62.5625,301.7031 62.6563,302.1094 C62.7188,302.5156 62.75,302.6406 62.8906,302.7656 C63.0313,302.9063 63.2656,303.0156 63.4844,303.0156 C63.75,303.0156 64.0156,302.875 64.1875,302.6563 C64.2969,302.5 64.3281,302.3125 64.3281,301.8906 L64.3281,300.4688 C64.3281,300.0313 64.3125,299.9063 64.2188,299.75 C64.0625,299.4844 63.7813,299.3438 63.4844,299.3438 C63.1875,299.3438 62.9844,299.4375 62.7656,299.75 L62.5938,299.6719 Z "/><text fill="#000000" font-family="sans-serif" font-size="12" lengthAdjust="spacingAndGlyphs" textLength="80" x="80.75" y="308.1543">UserAttribute</text><line style="stroke: #A80036; stroke-width: 1.5;" x1="8" x2="201" y1="320" y2="320"/><line style="stroke: #A80036; stroke-width: 1.5;" x1="8" x2="201" y1="328" y2="328"/><ellipse cx="18" cy="339" fill="#84BE84" rx="3" ry="3" style="stroke: #038048; stroke-width: 1.0;"/><text fill="#000000" font-family="sans-serif" font-size="11" lengthAdjust="spacingAndGlyphs" textLength="138" x="27" y="342.2104">id: character varying(36)</text><ellipse cx="18" cy="351.8047" fill="#84BE84" rx="3" ry="3" style="stroke: #038048; stroke-width: 1.0;"/><text fill="#000000" font-family="sans-serif" font-size="11" lengthAdjust="spacingAndGlyphs" textLength="168" x="27" y="355.0151">name: character varying(255)</text><ellipse cx="18" cy="364.6094" fill="#84BE84" rx="3" ry="3" style="stroke: #038048; stroke-width: 1.0;"/><text fill="#000000" font-family="sans-serif" font-size="11" lengthAdjust="spacingAndGlyphs" textLength="167" x="27" y="367.8198">value: character varying(255)</text><ellipse cx="18" cy="377.4141" fill="#84BE84" rx="3" ry="3" style="stroke: #038048; stroke-width: 1.0;"/><text fill="#000000" font-family="sans-serif" font-size="11" lengthAdjust="spacingAndGlyphs" textLength="169" x="27" y="380.6245">user_id: character varying(36)</text><!--MD5=[270a02414e6f22a29d048d08eafde2d4]
class Credential--><rect fill="#FEFECE" filter="url(#fz6fi8quo9vt6)" height="163.2422" id="Credential" style="stroke: #A80036; stroke-width: 1.5;" width="217" x="237" y="256"/><ellipse cx="310.75" cy="272" fill="#ADD1B2" rx="11" ry="11" style="stroke: #A80036; stroke-width: 1.0;"/><path d="M313.0938,267.6719 C312.1563,267.2344 311.5625,267.0938 310.6875,267.0938 C308.0625,267.0938 306.0625,269.1719 306.0625,271.8906 L306.0625,273.0156 C306.0625,275.5938 308.1719,277.4844 311.0625,277.4844 C312.2813,277.4844 313.4375,277.1875 314.1875,276.6406 C314.7656,276.2344 315.0938,275.7813 315.0938,275.3906 C315.0938,274.9375 314.7031,274.5469 314.2344,274.5469 C314.0156,274.5469 313.8125,274.625 313.625,274.8125 C313.1719,275.2969 313.1719,275.2969 312.9844,275.3906 C312.5625,275.6563 311.875,275.7813 311.1094,275.7813 C309.0625,275.7813 307.7656,274.6875 307.7656,272.9844 L307.7656,271.8906 C307.7656,270.1094 309.0156,268.7969 310.75,268.7969 C311.3281,268.7969 311.9375,268.9531 312.4063,269.2031 C312.8906,269.4844 313.0625,269.7031 313.1563,270.1094 C313.2188,270.5156 313.25,270.6406 313.3906,270.7656 C313.5313,270.9063 313.7656,271.0156 313.9844,271.0156 C314.25,271.0156 314.5156,270.875 314.6875,270.6563 C314.7969,270.5 314.8281,270.3125 314.8281,269.8906 L314.8281,268.4688 C314.8281,268.0313 314.8125,267.9063 314.7188,267.75 C314.5625,267.4844 314.2813,267.3438 313.9844,267.3438 C313.6875,267.3438 313.4844,267.4375 313.2656,267.75 L313.0938,267.6719 Z "/><text fill="#000000" font-family="sans-serif" font-size="12" lengthAdjust="spacingAndGlyphs" textLength="61" x="331.25" y="276.1543">Credential</text><line style="stroke: #A80036; stroke-width: 1.5;" x1="238" x2="453" y1="288" y2="288"/><ellipse cx="248" cy="299" fill="none" rx="3" ry="3" style="stroke: #038048; stroke-width: 1.0;"/><text fill="#000000" font-family="sans-serif" font-size="11" lengthAdjust="spacingAndGlyphs" textLength="60" x="257" y="302.2104">slat: bytea</text><ellipse cx="248" cy="311.8047" fill="none" rx="3" ry="3" style="stroke: #038048; stroke-width: 1.0;"/><text fill="#000000" font-family="sans-serif" font-size="11" lengthAdjust="spacingAndGlyphs" textLength="110" x="257" y="315.0151">createdDate: bigint</text><ellipse cx="248" cy="324.6094" fill="none" rx="3" ry="3" style="stroke: #038048; stroke-width: 1.0;"/><text fill="#000000" font-family="sans-serif" font-size="11" lengthAdjust="spacingAndGlyphs" textLength="93" x="257" y="327.8198">secretData: text</text><ellipse cx="248" cy="337.4141" fill="none" rx="3" ry="3" style="stroke: #038048; stroke-width: 1.0;"/><text fill="#000000" font-family="sans-serif" font-size="11" lengthAdjust="spacingAndGlyphs" textLength="114" x="257" y="340.6245">credentialData: text</text><ellipse cx="248" cy="350.2188" fill="none" rx="3" ry="3" style="stroke: #038048; stroke-width: 1.0;"/><text fill="#000000" font-family="sans-serif" font-size="11" lengthAdjust="spacingAndGlyphs" textLength="87" x="257" y="353.4292">priority: integer</text><line style="stroke: #A80036; stroke-width: 1.5;" x1="238" x2="453" y1="360.0234" y2="360.0234"/><ellipse cx="248" cy="371.0234" fill="#84BE84" rx="3" ry="3" style="stroke: #038048; stroke-width: 1.0;"/><text fill="#000000" font-family="sans-serif" font-size="11" lengthAdjust="spacingAndGlyphs" textLength="138" x="257" y="374.2339">id: character varying(36)</text><ellipse cx="248" cy="383.8281" fill="#84BE84" rx="3" ry="3" style="stroke: #038048; stroke-width: 1.0;"/><text fill="#000000" font-family="sans-serif" font-size="11" lengthAdjust="spacingAndGlyphs" textLength="161" x="257" y="387.0386">type: character varying(255)</text><ellipse cx="248" cy="396.6328" fill="#84BE84" rx="3" ry="3" style="stroke: #038048; stroke-width: 1.0;"/><text fill="#000000" font-family="sans-serif" font-size="11" lengthAdjust="spacingAndGlyphs" textLength="163" x="257" y="399.8433">userId: character varying(36)</text><ellipse cx="248" cy="409.4375" fill="#84BE84" rx="3" ry="3" style="stroke: #038048; stroke-width: 1.0;"/><text fill="#000000" font-family="sans-serif" font-size="11" lengthAdjust="spacingAndGlyphs" textLength="191" x="257" y="412.6479">userLabel: character varying(255)</text><!--MD5=[2f499e9d72c66c88ab5674970489936d]
class ThirdPartyIdentity--><rect fill="#FEFECE" filter="url(#fz6fi8quo9vt6)" height="112.0234" id="ThirdPartyIdentity" style="stroke: #A80036; stroke-width: 1.5;" width="274" x="489.5" y="281.5"/><ellipse cx="570.75" cy="297.5" fill="#ADD1B2" rx="11" ry="11" style="stroke: #A80036; stroke-width: 1.0;"/><path d="M573.0938,293.1719 C572.1563,292.7344 571.5625,292.5938 570.6875,292.5938 C568.0625,292.5938 566.0625,294.6719 566.0625,297.3906 L566.0625,298.5156 C566.0625,301.0938 568.1719,302.9844 571.0625,302.9844 C572.2813,302.9844 573.4375,302.6875 574.1875,302.1406 C574.7656,301.7344 575.0938,301.2813 575.0938,300.8906 C575.0938,300.4375 574.7031,300.0469 574.2344,300.0469 C574.0156,300.0469 573.8125,300.125 573.625,300.3125 C573.1719,300.7969 573.1719,300.7969 572.9844,300.8906 C572.5625,301.1563 571.875,301.2813 571.1094,301.2813 C569.0625,301.2813 567.7656,300.1875 567.7656,298.4844 L567.7656,297.3906 C567.7656,295.6094 569.0156,294.2969 570.75,294.2969 C571.3281,294.2969 571.9375,294.4531 572.4063,294.7031 C572.8906,294.9844 573.0625,295.2031 573.1563,295.6094 C573.2188,296.0156 573.25,296.1406 573.3906,296.2656 C573.5313,296.4063 573.7656,296.5156 573.9844,296.5156 C574.25,296.5156 574.5156,296.375 574.6875,296.1563 C574.7969,296 574.8281,295.8125 574.8281,295.3906 L574.8281,293.9688 C574.8281,293.5313 574.8125,293.4063 574.7188,293.25 C574.5625,292.9844 574.2813,292.8438 573.9844,292.8438 C573.6875,292.8438 573.4844,292.9375 573.2656,293.25 L573.0938,293.1719 Z "/><text fill="#000000" font-family="sans-serif" font-size="12" lengthAdjust="spacingAndGlyphs" textLength="103" x="591.25" y="301.6543">ThirdPartyIdentity</text><line style="stroke: #A80036; stroke-width: 1.5;" x1="490.5" x2="762.5" y1="313.5" y2="313.5"/><ellipse cx="500.5" cy="324.5" fill="none" rx="3" ry="3" style="stroke: #038048; stroke-width: 1.0;"/><text fill="#000000" font-family="sans-serif" font-size="11" lengthAdjust="spacingAndGlyphs" textLength="62" x="509.5" y="327.7104">token: text</text><line style="stroke: #A80036; stroke-width: 1.5;" x1="490.5" x2="762.5" y1="334.3047" y2="334.3047"/><ellipse cx="500.5" cy="345.3047" fill="#84BE84" rx="3" ry="3" style="stroke: #038048; stroke-width: 1.0;"/><text fill="#000000" font-family="sans-serif" font-size="11" lengthAdjust="spacingAndGlyphs" textLength="224" x="509.5" y="348.5151">identityProvider: character varying(255)</text><ellipse cx="500.5" cy="358.1094" fill="#84BE84" rx="3" ry="3" style="stroke: #038048; stroke-width: 1.0;"/><text fill="#000000" font-family="sans-serif" font-size="11" lengthAdjust="spacingAndGlyphs" textLength="163" x="509.5" y="361.3198">userId: character varying(36)</text><ellipse cx="500.5" cy="370.9141" fill="#84BE84" rx="3" ry="3" style="stroke: #038048; stroke-width: 1.0;"/><text fill="#000000" font-family="sans-serif" font-size="11" lengthAdjust="spacingAndGlyphs" textLength="224" x="509.5" y="374.1245">thirdPartyUserId: character varying(255)</text><ellipse cx="500.5" cy="383.7188" fill="#84BE84" rx="3" ry="3" style="stroke: #038048; stroke-width: 1.0;"/><text fill="#000000" font-family="sans-serif" font-size="11" lengthAdjust="spacingAndGlyphs" textLength="248" x="509.5" y="386.9292">thirdPartyUserName: character varying(255)</text><!--MD5=[3fd616f346a44cd59a91eb10b19e157c]
class User--><rect fill="#FEFECE" filter="url(#fz6fi8quo9vt6)" height="188.8516" id="User" style="stroke: #A80036; stroke-width: 1.5;" width="246" x="222.5" y="7"/><ellipse cx="326.75" cy="23" fill="#ADD1B2" rx="11" ry="11" style="stroke: #A80036; stroke-width: 1.0;"/><path d="M329.0938,18.6719 C328.1563,18.2344 327.5625,18.0938 326.6875,18.0938 C324.0625,18.0938 322.0625,20.1719 322.0625,22.8906 L322.0625,24.0156 C322.0625,26.5938 324.1719,28.4844 327.0625,28.4844 C328.2813,28.4844 329.4375,28.1875 330.1875,27.6406 C330.7656,27.2344 331.0938,26.7813 331.0938,26.3906 C331.0938,25.9375 330.7031,25.5469 330.2344,25.5469 C330.0156,25.5469 329.8125,25.625 329.625,25.8125 C329.1719,26.2969 329.1719,26.2969 328.9844,26.3906 C328.5625,26.6563 327.875,26.7813 327.1094,26.7813 C325.0625,26.7813 323.7656,25.6875 323.7656,23.9844 L323.7656,22.8906 C323.7656,21.1094 325.0156,19.7969 326.75,19.7969 C327.3281,19.7969 327.9375,19.9531 328.4063,20.2031 C328.8906,20.4844 329.0625,20.7031 329.1563,21.1094 C329.2188,21.5156 329.25,21.6406 329.3906,21.7656 C329.5313,21.9063 329.7656,22.0156 329.9844,22.0156 C330.25,22.0156 330.5156,21.875 330.6875,21.6563 C330.7969,21.5 330.8281,21.3125 330.8281,20.8906 L330.8281,19.4688 C330.8281,19.0313 330.8125,18.9063 330.7188,18.75 C330.5625,18.4844 330.2813,18.3438 329.9844,18.3438 C329.6875,18.3438 329.4844,18.4375 329.2656,18.75 L329.0938,18.6719 Z "/><text fill="#000000" font-family="sans-serif" font-size="12" lengthAdjust="spacingAndGlyphs" textLength="29" x="347.25" y="27.1543">User</text><line style="stroke: #A80036; stroke-width: 1.5;" x1="223.5" x2="467.5" y1="39" y2="39"/><ellipse cx="233.5" cy="50" fill="none" rx="3" ry="3" style="stroke: #038048; stroke-width: 1.0;"/><text fill="#000000" font-family="sans-serif" font-size="11" lengthAdjust="spacingAndGlyphs" textLength="130" x="242.5" y="53.2104">emailVerified: boolean</text><ellipse cx="233.5" cy="62.8047" fill="none" rx="3" ry="3" style="stroke: #038048; stroke-width: 1.0;"/><text fill="#000000" font-family="sans-serif" font-size="11" lengthAdjust="spacingAndGlyphs" textLength="146" x="242.5" y="66.0151">createdTimestamp: bigint</text><ellipse cx="233.5" cy="75.6094" fill="none" rx="3" ry="3" style="stroke: #038048; stroke-width: 1.0;"/><text fill="#000000" font-family="sans-serif" font-size="11" lengthAdjust="spacingAndGlyphs" textLength="100" x="242.5" y="78.8198">enabled: boolean</text><ellipse cx="233.5" cy="88.4141" fill="none" rx="3" ry="3" style="stroke: #038048; stroke-width: 1.0;"/><text fill="#000000" font-family="sans-serif" font-size="11" lengthAdjust="spacingAndGlyphs" textLength="170" x="242.5" y="91.6245">userAttributes: UserAttribute[]</text><ellipse cx="233.5" cy="101.2188" fill="none" rx="3" ry="3" style="stroke: #038048; stroke-width: 1.0;"/><text fill="#000000" font-family="sans-serif" font-size="11" lengthAdjust="spacingAndGlyphs" textLength="137" x="242.5" y="104.4292">credentials: Credential[]</text><ellipse cx="233.5" cy="114.0234" fill="none" rx="3" ry="3" style="stroke: #038048; stroke-width: 1.0;"/><text fill="#000000" font-family="sans-serif" font-size="11" lengthAdjust="spacingAndGlyphs" textLength="220" x="242.5" y="117.2339">thirdPartyIdentities: ThirdPartyIdentity[]</text><line style="stroke: #A80036; stroke-width: 1.5;" x1="223.5" x2="467.5" y1="123.8281" y2="123.8281"/><ellipse cx="233.5" cy="134.8281" fill="#84BE84" rx="3" ry="3" style="stroke: #038048; stroke-width: 1.0;"/><text fill="#000000" font-family="sans-serif" font-size="11" lengthAdjust="spacingAndGlyphs" textLength="138" x="242.5" y="138.0386">id: character varying(36)</text><ellipse cx="233.5" cy="147.6328" fill="#84BE84" rx="3" ry="3" style="stroke: #038048; stroke-width: 1.0;"/><text fill="#000000" font-family="sans-serif" font-size="11" lengthAdjust="spacingAndGlyphs" textLength="167" x="242.5" y="150.8433">email: character varying(255)</text><ellipse cx="233.5" cy="160.4375" fill="#84BE84" rx="3" ry="3" style="stroke: #038048; stroke-width: 1.0;"/><text fill="#000000" font-family="sans-serif" font-size="11" lengthAdjust="spacingAndGlyphs" textLength="190" x="242.5" y="163.6479">firstName: character varying(255)</text><ellipse cx="233.5" cy="173.2422" fill="#84BE84" rx="3" ry="3" style="stroke: #038048; stroke-width: 1.0;"/><text fill="#000000" font-family="sans-serif" font-size="11" lengthAdjust="spacingAndGlyphs" textLength="189" x="242.5" y="176.4526">lastName: character varying(255)</text><ellipse cx="233.5" cy="186.0469" fill="#84BE84" rx="3" ry="3" style="stroke: #038048; stroke-width: 1.0;"/><text fill="#000000" font-family="sans-serif" font-size="11" lengthAdjust="spacingAndGlyphs" textLength="193" x="242.5" y="189.2573">username: character varying(255)</text><!--MD5=[78552c0c954aa8d93bb17035958f5638]
link User to UserAttribute--><path d="M248.865,196.328 C218.035,226.262 185.035,258.304 158.378,284.187 " fill="none" id="User-&gt;UserAttribute" style="stroke: #A80036; stroke-width: 1.0;"/><polygon fill="#A80036" points="154.492,287.96,163.7355,284.5604,158.0793,284.477,158.1627,278.8208,154.492,287.96" style="stroke: #A80036; stroke-width: 1.0;"/><!--MD5=[66482b828cffd1241b8fb84a0cc08e2b]
link User to Credential--><path d="M345.5,196.328 C345.5,214.189 345.5,232.8 345.5,250.405 " fill="none" id="User-&gt;Credential" style="stroke: #A80036; stroke-width: 1.0;"/><polygon fill="#A80036" points="345.5,255.835,349.5,246.835,345.5,250.835,341.5,246.835,345.5,255.835" style="stroke: #A80036; stroke-width: 1.0;"/><!--MD5=[f64081befff5d37fca57ad2cd29ada5a]
link User to ThirdPartyIdentity--><path d="M458.174,196.328 C491.345,223.951 526.672,253.369 556.353,278.085 " fill="none" id="User-&gt;ThirdPartyIdentity" style="stroke: #A80036; stroke-width: 1.0;"/><polygon fill="#A80036" points="560.316,281.386,555.9595,272.553,556.4737,278.1865,550.8403,278.7007,560.316,281.386" style="stroke: #A80036; stroke-width: 1.0;"/><!--MD5=[49be46b8509ceaec557f801f041aaed5]
@startuml
class UserAttribute {
    +id: character varying(36)
    +name: character varying(255)
    +value: character varying(255)
    +user_id: character varying(36)
}
class Credential {
    +id: character varying(36)
    +slat: bytea
    +type: character varying(255)
    +userId: character varying(36)
    +createdDate: bigint
    +userLabel: character varying(255)
    +secretData: text
    +credentialData: text
    +priority: integer
}
class ThirdPartyIdentity {
    +identityProvider: character varying(255)
    +userId: character varying(36)
    +thirdPartyUserId: character varying(255)
    +thirdPartyUserName: character varying(255)
    +token: text
}
class User {
    +id: character varying(36)
    +email: character varying(255)
    +emailVerified: boolean
    +firstName: character varying(255)
    +lastName: character varying(255)
    +username: character varying(255)
    +createdTimestamp: bigint
    +enabled: boolean
    +userAttributes: UserAttribute[]
    +credentials: Credential[]
    +thirdPartyIdentities: ThirdPartyIdentity[]
}
User - -> UserAttribute
User - -> Credential
User - -> ThirdPartyIdentity
@enduml

PlantUML version 1.2020.13(Sat Jun 13 12:26:38 UTC 2020)
(GPL source distribution)
Java Runtime: Java(TM) SE Runtime Environment
JVM: Java HotSpot(TM) 64-Bit Server VM
Default Encoding: UTF-8
Language: en
Country: US
--></g></svg>