<?xml version="1.0" encoding="UTF-8" standalone="no"?><svg xmlns="http://www.w3.org/2000/svg" xmlns:xlink="http://www.w3.org/1999/xlink" contentScriptType="application/ecmascript" contentStyleType="text/css" height="176px" preserveAspectRatio="none" style="width:214px;height:176px;" version="1.1" viewBox="0 0 214 176" width="214px" zoomAndPan="magnify"><defs><filter height="300%" id="f1d5f73omaacv2" width="300%" x="-1" y="-1"><feGaussianBlur result="blurOut" stdDeviation="2.0"/><feColorMatrix in="blurOut" result="blurOut2" type="matrix" values="0 0 0 0 0 0 0 0 0 0 0 0 0 0 0 0 0 0 .4 0"/><feOffset dx="4.0" dy="4.0" in="blurOut2" result="blurOut3"/><feBlend in="SourceGraphic" in2="blurOut3" mode="normal"/></filter></defs><g><!--MD5=[3fd616f346a44cd59a91eb10b19e157c]
class User--><rect fill="#FEFECE" filter="url(#f1d5f73omaacv2)" height="150.4375" id="User" style="stroke: #A80036; stroke-width: 1.5;" width="188" x="7" y="7"/><ellipse cx="82.25" cy="23" fill="#ADD1B2" rx="11" ry="11" style="stroke: #A80036; stroke-width: 1.0;"/><path d="M84.5938,18.6719 C83.6563,18.2344 83.0625,18.0938 82.1875,18.0938 C79.5625,18.0938 77.5625,20.1719 77.5625,22.8906 L77.5625,24.0156 C77.5625,26.5938 79.6719,28.4844 82.5625,28.4844 C83.7813,28.4844 84.9375,28.1875 85.6875,27.6406 C86.2656,27.2344 86.5938,26.7813 86.5938,26.3906 C86.5938,25.9375 86.2031,25.5469 85.7344,25.5469 C85.5156,25.5469 85.3125,25.625 85.125,25.8125 C84.6719,26.2969 84.6719,26.2969 84.4844,26.3906 C84.0625,26.6563 83.375,26.7813 82.6094,26.7813 C80.5625,26.7813 79.2656,25.6875 79.2656,23.9844 L79.2656,22.8906 C79.2656,21.1094 80.5156,19.7969 82.25,19.7969 C82.8281,19.7969 83.4375,19.9531 83.9063,20.2031 C84.3906,20.4844 84.5625,20.7031 84.6563,21.1094 C84.7188,21.5156 84.75,21.6406 84.8906,21.7656 C85.0313,21.9063 85.2656,22.0156 85.4844,22.0156 C85.75,22.0156 86.0156,21.875 86.1875,21.6563 C86.2969,21.5 86.3281,21.3125 86.3281,20.8906 L86.3281,19.4688 C86.3281,19.0313 86.3125,18.9063 86.2188,18.75 C86.0625,18.4844 85.7813,18.3438 85.4844,18.3438 C85.1875,18.3438 84.9844,18.4375 84.7656,18.75 L84.5938,18.6719 Z "/><text fill="#000000" font-family="sans-serif" font-size="12" lengthAdjust="spacingAndGlyphs" textLength="29" x="102.75" y="27.1543">User</text><line style="stroke: #A80036; stroke-width: 1.5;" x1="8" x2="194" y1="39" y2="39"/><ellipse cx="18" cy="50" fill="none" rx="3" ry="3" style="stroke: #038048; stroke-width: 1.0;"/><text fill="#000000" font-family="sans-serif" font-size="11" lengthAdjust="spacingAndGlyphs" textLength="61" x="27" y="53.2104">id: number</text><ellipse cx="18" cy="62.8047" fill="none" rx="3" ry="3" style="stroke: #038048; stroke-width: 1.0;"/><text fill="#000000" font-family="sans-serif" font-size="11" lengthAdjust="spacingAndGlyphs" textLength="70" x="27" y="66.0151">email: string</text><ellipse cx="18" cy="75.6094" fill="none" rx="3" ry="3" style="stroke: #038048; stroke-width: 1.0;"/><text fill="#000000" font-family="sans-serif" font-size="11" lengthAdjust="spacingAndGlyphs" textLength="120" x="27" y="78.8198">email_verified: string</text><ellipse cx="18" cy="88.4141" fill="none" rx="3" ry="3" style="stroke: #038048; stroke-width: 1.0;"/><text fill="#000000" font-family="sans-serif" font-size="11" lengthAdjust="spacingAndGlyphs" textLength="98" x="27" y="91.6245">first_name: string</text><ellipse cx="18" cy="101.2188" fill="none" rx="3" ry="3" style="stroke: #038048; stroke-width: 1.0;"/><text fill="#000000" font-family="sans-serif" font-size="11" lengthAdjust="spacingAndGlyphs" textLength="97" x="27" y="104.4292">last_name: string</text><ellipse cx="18" cy="114.0234" fill="none" rx="3" ry="3" style="stroke: #038048; stroke-width: 1.0;"/><text fill="#000000" font-family="sans-serif" font-size="11" lengthAdjust="spacingAndGlyphs" textLength="96" x="27" y="117.2339">username: string</text><ellipse cx="18" cy="126.8281" fill="none" rx="3" ry="3" style="stroke: #038048; stroke-width: 1.0;"/><text fill="#000000" font-family="sans-serif" font-size="11" lengthAdjust="spacingAndGlyphs" textLength="162" x="27" y="130.0386">created_timestamp: number</text><ellipse cx="18" cy="139.6328" fill="none" rx="3" ry="3" style="stroke: #038048; stroke-width: 1.0;"/><text fill="#000000" font-family="sans-serif" font-size="11" lengthAdjust="spacingAndGlyphs" textLength="100" x="27" y="142.8433">enabled: boolean</text><line style="stroke: #A80036; stroke-width: 1.5;" x1="8" x2="194" y1="149.4375" y2="149.4375"/><!--MD5=[dd00d1d9e9457c60d19da5ce680045f5]
@startuml
class User {
    +id: number
    +email: string
    +email_verified: string
    +first_name: string
    +last_name: string
    +username: string
    +created_timestamp: number
    +enabled: boolean
}
@enduml

PlantUML version 1.2020.13(Sat Jun 13 12:26:38 UTC 2020)
(GPL source distribution)
Java Runtime: Java(TM) SE Runtime Environment
JVM: Java HotSpot(TM) 64-Bit Server VM
Default Encoding: UTF-8
Language: en
Country: US
--></g></svg>