<?xml version="1.0" encoding="UTF-8" standalone="no"?><svg xmlns="http://www.w3.org/2000/svg" xmlns:xlink="http://www.w3.org/1999/xlink" contentScriptType="application/ecmascript" contentStyleType="text/css" height="176px" preserveAspectRatio="none" style="width:201px;height:176px;" version="1.1" viewBox="0 0 201 176" width="201px" zoomAndPan="magnify"><defs><filter height="300%" id="f17sbxfxmtbi4z" width="300%" x="-1" y="-1"><feGaussianBlur result="blurOut" stdDeviation="2.0"/><feColorMatrix in="blurOut" result="blurOut2" type="matrix" values="0 0 0 0 0 0 0 0 0 0 0 0 0 0 0 0 0 0 .4 0"/><feOffset dx="4.0" dy="4.0" in="blurOut2" result="blurOut3"/><feBlend in="SourceGraphic" in2="blurOut3" mode="normal"/></filter></defs><g><!--MD5=[3fd616f346a44cd59a91eb10b19e157c]
class User--><rect fill="#FEFECE" filter="url(#f17sbxfxmtbi4z)" height="150.4375" id="User" style="stroke: #A80036; stroke-width: 1.5;" width="175" x="7" y="7"/><ellipse cx="75.75" cy="23" fill="#ADD1B2" rx="11" ry="11" style="stroke: #A80036; stroke-width: 1.0;"/><path d="M78.0938,18.6719 C77.1563,18.2344 76.5625,18.0938 75.6875,18.0938 C73.0625,18.0938 71.0625,20.1719 71.0625,22.8906 L71.0625,24.0156 C71.0625,26.5938 73.1719,28.4844 76.0625,28.4844 C77.2813,28.4844 78.4375,28.1875 79.1875,27.6406 C79.7656,27.2344 80.0938,26.7813 80.0938,26.3906 C80.0938,25.9375 79.7031,25.5469 79.2344,25.5469 C79.0156,25.5469 78.8125,25.625 78.625,25.8125 C78.1719,26.2969 78.1719,26.2969 77.9844,26.3906 C77.5625,26.6563 76.875,26.7813 76.1094,26.7813 C74.0625,26.7813 72.7656,25.6875 72.7656,23.9844 L72.7656,22.8906 C72.7656,21.1094 74.0156,19.7969 75.75,19.7969 C76.3281,19.7969 76.9375,19.9531 77.4063,20.2031 C77.8906,20.4844 78.0625,20.7031 78.1563,21.1094 C78.2188,21.5156 78.25,21.6406 78.3906,21.7656 C78.5313,21.9063 78.7656,22.0156 78.9844,22.0156 C79.25,22.0156 79.5156,21.875 79.6875,21.6563 C79.7969,21.5 79.8281,21.3125 79.8281,20.8906 L79.8281,19.4688 C79.8281,19.0313 79.8125,18.9063 79.7188,18.75 C79.5625,18.4844 79.2813,18.3438 78.9844,18.3438 C78.6875,18.3438 78.4844,18.4375 78.2656,18.75 L78.0938,18.6719 Z "/><text fill="#000000" font-family="sans-serif" font-size="12" lengthAdjust="spacingAndGlyphs" textLength="29" x="96.25" y="27.1543">User</text><line style="stroke: #A80036; stroke-width: 1.5;" x1="8" x2="181" y1="39" y2="39"/><ellipse cx="18" cy="50" fill="none" rx="3" ry="3" style="stroke: #038048; stroke-width: 1.0;"/><text fill="#000000" font-family="sans-serif" font-size="11" lengthAdjust="spacingAndGlyphs" textLength="135" x="27" y="53.2104">email_verified: boolean</text><ellipse cx="18" cy="62.8047" fill="none" rx="3" ry="3" style="stroke: #038048; stroke-width: 1.0;"/><text fill="#000000" font-family="sans-serif" font-size="11" lengthAdjust="spacingAndGlyphs" textLength="149" x="27" y="66.0151">created_timestamp: bigint</text><ellipse cx="18" cy="75.6094" fill="none" rx="3" ry="3" style="stroke: #038048; stroke-width: 1.0;"/><text fill="#000000" font-family="sans-serif" font-size="11" lengthAdjust="spacingAndGlyphs" textLength="100" x="27" y="78.8198">enabled: boolean</text><line style="stroke: #A80036; stroke-width: 1.5;" x1="8" x2="181" y1="85.4141" y2="85.4141"/><ellipse cx="18" cy="96.4141" fill="#84BE84" rx="3" ry="3" style="stroke: #038048; stroke-width: 1.0;"/><text fill="#000000" font-family="sans-serif" font-size="11" lengthAdjust="spacingAndGlyphs" textLength="114" x="27" y="99.6245">id: ; varchar(; 36) (; )</text><ellipse cx="18" cy="109.2188" fill="#84BE84" rx="3" ry="3" style="stroke: #038048; stroke-width: 1.0;"/><text fill="#000000" font-family="sans-serif" font-size="11" lengthAdjust="spacingAndGlyphs" textLength="110" x="27" y="112.4292">email: varchar(255)</text><ellipse cx="18" cy="122.0234" fill="#84BE84" rx="3" ry="3" style="stroke: #038048; stroke-width: 1.0;"/><text fill="#000000" font-family="sans-serif" font-size="11" lengthAdjust="spacingAndGlyphs" textLength="138" x="27" y="125.2339">first_name: varchar(255)</text><ellipse cx="18" cy="134.8281" fill="#84BE84" rx="3" ry="3" style="stroke: #038048; stroke-width: 1.0;"/><text fill="#000000" font-family="sans-serif" font-size="11" lengthAdjust="spacingAndGlyphs" textLength="137" x="27" y="138.0386">last_name: varchar(255)</text><ellipse cx="18" cy="147.6328" fill="#84BE84" rx="3" ry="3" style="stroke: #038048; stroke-width: 1.0;"/><text fill="#000000" font-family="sans-serif" font-size="11" lengthAdjust="spacingAndGlyphs" textLength="136" x="27" y="150.8433">username: varchar(255)</text><!--MD5=[81a9200f9097e5b6a8092be6b5fc86f7]
@startuml
class User {
    +id: ; varchar(; 36) (; )
    +email: varchar(255)
    +email_verified: boolean
    +first_name: varchar(255)
    +last_name: varchar(255)
    +username: varchar(255)
    +created_timestamp: bigint
    +enabled: boolean
}
@enduml

PlantUML version 1.2020.13(Sat Jun 13 12:26:38 UTC 2020)
(GPL source distribution)
Java Runtime: Java(TM) SE Runtime Environment
JVM: Java HotSpot(TM) 64-Bit Server VM
Default Encoding: UTF-8
Language: en
Country: US
--></g></svg>