<?xml version="1.0" encoding="UTF-8" standalone="no"?><svg xmlns="http://www.w3.org/2000/svg" xmlns:xlink="http://www.w3.org/1999/xlink" contentScriptType="application/ecmascript" contentStyleType="text/css" height="117px" preserveAspectRatio="none" style="width:225px;height:117px;" version="1.1" viewBox="0 0 225 117" width="225px" zoomAndPan="magnify"><defs><filter height="300%" id="f8o4dd1i2yhgy" width="300%" x="-1" y="-1"><feGaussianBlur result="blurOut" stdDeviation="2.0"/><feColorMatrix in="blurOut" result="blurOut2" type="matrix" values="0 0 0 0 0 0 0 0 0 0 0 0 0 0 0 0 0 0 .4 0"/><feOffset dx="4.0" dy="4.0" in="blurOut2" result="blurOut3"/><feBlend in="SourceGraphic" in2="blurOut3" mode="normal"/></filter></defs><g><!--MD5=[3fd616f346a44cd59a91eb10b19e157c]
class User--><rect fill="#FEFECE" filter="url(#f8o4dd1i2yhgy)" height="99.2188" id="User" style="stroke: #A80036; stroke-width: 1.5;" width="207" x="7" y="7"/><ellipse cx="91.75" cy="23" fill="#ADD1B2" rx="11" ry="11" style="stroke: #A80036; stroke-width: 1.0;"/><path d="M94.0938,18.6719 L94.2656,18.75 C94.4844,18.4375 94.6875,18.3438 94.9844,18.3438 C95.2813,18.3438 95.5625,18.4844 95.7188,18.75 C95.8125,18.9063 95.8281,19.0313 95.8281,19.4688 L95.8281,20.8906 C95.8281,21.3125 95.7969,21.5 95.6875,21.6563 C95.5156,21.875 95.25,22.0156 94.9844,22.0156 C94.7656,22.0156 94.5313,21.9063 94.3906,21.7656 C94.25,21.6406 94.2188,21.5156 94.1563,21.1094 C94.0625,20.7031 93.8906,20.4844 93.4063,20.2031 C92.9375,19.9531 92.3281,19.7969 91.75,19.7969 C90.0156,19.7969 88.7656,21.1094 88.7656,22.8906 L88.7656,23.9844 C88.7656,25.6875 90.0625,26.7813 92.1094,26.7813 C92.875,26.7813 93.5625,26.6563 93.9844,26.3906 C94.1719,26.2969 94.1719,26.2969 94.625,25.8125 C94.8125,25.625 95.0156,25.5469 95.2344,25.5469 C95.7031,25.5469 96.0938,25.9375 96.0938,26.3906 C96.0938,26.7813 95.7656,27.2344 95.1875,27.6406 C94.4375,28.1875 93.2813,28.4844 92.0625,28.4844 C89.1719,28.4844 87.0625,26.5938 87.0625,24.0156 L87.0625,22.8906 C87.0625,20.1719 89.0625,18.0938 91.6875,18.0938 C92.5625,18.0938 93.1563,18.2344 94.0938,18.6719 Z "/><text fill="#000000" font-family="sans-serif" font-size="12" lengthAdjust="spacingAndGlyphs" textLength="29" x="112.25" y="27.1543">User</text><line style="stroke: #A80036; stroke-width: 1.5;" x1="8" x2="213" y1="39" y2="39"/><line style="stroke: #A80036; stroke-width: 1.5;" x1="8" x2="213" y1="47" y2="47"/><ellipse cx="18" cy="58" fill="#84BE84" rx="3" ry="3" style="stroke: #038048; stroke-width: 1.0;"/><text fill="#000000" font-family="sans-serif" font-size="11" lengthAdjust="spacingAndGlyphs" textLength="111" x="27" y="61.2104">username: string ()</text><ellipse cx="18" cy="70.8047" fill="#84BE84" rx="3" ry="3" style="stroke: #038048; stroke-width: 1.0;"/><text fill="#000000" font-family="sans-serif" font-size="11" lengthAdjust="spacingAndGlyphs" textLength="109" x="27" y="74.0151">password: string ()</text><ellipse cx="18" cy="83.6094" fill="#84BE84" rx="3" ry="3" style="stroke: #038048; stroke-width: 1.0;"/><text fill="#000000" font-family="sans-serif" font-size="11" lengthAdjust="spacingAndGlyphs" textLength="100" x="27" y="86.8198">userId: number ()</text><ellipse cx="18" cy="96.4141" fill="#84BE84" rx="3" ry="3" style="stroke: #038048; stroke-width: 1.0;"/><text fill="#000000" font-family="sans-serif" font-size="11" lengthAdjust="spacingAndGlyphs" textLength="181" x="27" y="99.6245">displayName: string (显示的名称)</text><!--MD5=[dd1a14db4daf80edc01ffa2f7df51f4a]
@startuml
class User {
    +username: string ()
    +password: string ()
    +userId: number ()
    +displayName: string (显示的名称)
}
@enduml

PlantUML version 1.2020.00(Sat Jan 11 12:30:53 UTC 2020)
(GPL source distribution)
Java Runtime: Java(TM) SE Runtime Environment
JVM: Java HotSpot(TM) 64-Bit Server VM
Java Version: 1.7.0_25-b15
Operating System: Linux
Default Encoding: UTF-8
Language: en
Country: US
--></g></svg>